<?xml version="1.0" standalone="no"?>
<!DOCTYPE svg PUBLIC "-//W3C//DTD SVG 20010904//EN"
 "http://www.w3.org/TR/2001/REC-SVG-20010904/DTD/svg10.dtd">
<svg version="1.0" xmlns="http://www.w3.org/2000/svg"
 width="260.000000pt" height="260.000000pt" viewBox="0 0 260.000000 260.000000"
 preserveAspectRatio="xMidYMid meet">
<metadata>
Created by potrace 1.14, written by Peter Selinger 2001-2017
</metadata>
<g transform="translate(0.000000,260.000000) scale(0.100000,-0.100000)"
fill="#000000" stroke="none">
<path d="M1250 1783 c-126 -20 -239 -96 -283 -193 -30 -64 -29 -188 1 -250 26
-53 64 -98 110 -130 39 -26 123 -70 135 -70 26 0 176 -84 186 -104 34 -63 -13
-119 -101 -119 -79 1 -137 17 -234 66 l-49 25 -153 385 -153 385 -143 0 -143
0 -212 -529 c-116 -291 -211 -543 -211 -559 l0 -30 144 0 144 0 38 104 38 104
203 -1 203 -1 19 -50 c10 -28 26 -75 36 -103 l19 -53 140 -1 c78 0 193 -2 256
-4 63 -2 139 1 169 6 64 12 148 48 193 83 l33 25 55 -35 c91 -58 176 -79 315
-79 91 0 133 5 175 19 248 84 392 281 393 536 1 174 -45 291 -159 407 -176
180 -448 222 -681 105 l-51 -25 -59 25 c-62 27 -109 43 -158 53 -37 8 -181 13
-215 8z m176 -269 c29 -8 56 -18 58 -22 2 -4 -8 -43 -23 -88 l-27 -81 -35 12
c-117 41 -176 94 -158 141 10 27 23 36 69 45 54 10 58 10 116 -7z m691 -23
c130 -66 190 -239 136 -392 -23 -66 -96 -141 -157 -162 -56 -19 -161 -15 -206
8 -142 74 -198 264 -124 422 62 130 226 188 351 124z m-1522 -144 c8 -25 29
-83 45 -129 17 -46 30 -86 30 -89 0 -3 -47 -5 -105 -5 -88 0 -105 3 -100 15 3
7 27 74 52 147 29 81 50 128 55 121 4 -8 14 -34 23 -60z"/>
</g>
</svg>
